<svg width="512" height="512" viewBox="0 0 512 512" fill="none" xmlns="http://www.w3.org/2000/svg">
  <defs>
    <linearGradient id="chatGradient" x1="0" y1="0" x2="1" y2="1">
      <stop offset="0%" stop-color="#6366f1"/>
      <stop offset="100%" stop-color="#06b6d4"/>
    </linearGradient>
  </defs>

  <!-- Chat bubble -->
  <path 
    d="M256 64C150.1 64 64 136.8 64 226C64 278.5 95.8 325.2 144.5 351.5L128 432L214 382.5C227.5 385 241.5 386 256 386C361.9 386 448 313.2 448 224C448 136.8 361.9 64 256 64Z"
    fill="url(#chatGradient)"
  />

  <!-- Wave lines -->
  <path 
    d="M150 230C180 200 210 260 240 230C270 200 300 260 330 230"
    stroke="white"
    stroke-width="24"
    stroke-linecap="round"
    fill="none"
  />

  <circle cx="160" cy="300" r="12" fill="white"/>
  <circle cx="210" cy="300" r="12" fill="white"/>
  <circle cx="260" cy="300" r="12" fill="white"/>

</svg>